<?xml version="1.0" encoding="UTF-8" standalone="no"?>
<!DOCTYPE svg PUBLIC "-//W3C//DTD SVG 1.1//EN" "http://www.w3.org/Graphics/SVG/1.1/DTD/svg11.dtd">
<svg width="100%" height="100%" viewBox="0 0 167 166" version="1.1" xmlns="http://www.w3.org/2000/svg" xmlns:xlink="http://www.w3.org/1999/xlink" xml:space="preserve" xmlns:serif="http://www.serif.com/" style="fill-rule:evenodd;clip-rule:evenodd;stroke-linecap:round;stroke-linejoin:round;stroke-miterlimit:1.5;">
    <g transform="matrix(0.498063,0,0,0.48928,-11.0743,-8.80303)">
    
        <g transform="matrix(0.787056,0,0,0.739016,39.8877,87.5411)">
            <path d="M28.729,134.231L59.632,80.152L123.367,80.152L157.166,134.231L124.333,190L59.632,190L28.729,134.231Z" style="fill:rgb(255,149,0);stroke:black;stroke-width:22.34px;"/>
        </g>
        <g transform="matrix(0.787056,0,0,0.739016,193.713,84.5666)">
            <path d="M26.752,137.082L58.774,80.801L123.367,80.152L157.166,134.231L124.333,190L59.632,190L26.752,137.082Z" style="fill:rgb(255,149,0);stroke:black;stroke-width:22.34px;"/>
        </g>
        <g transform="matrix(0.787056,0,0,0.739016,117.051,126.648)">
            <path d="M26.752,137.082L58.774,80.801L123.367,80.152L157.166,134.231L124.333,190L59.632,190L26.752,137.082Z" style="fill:rgb(255,149,0);stroke:black;stroke-width:22.34px;"/>
        </g>
        <g transform="matrix(0.787056,0,0,0.739016,118.625,207.832)">
            <path d="M26.752,137.082L58.774,80.801L123.367,80.152L157.166,134.231L124.333,190L59.632,190L26.752,137.082Z" style="fill:rgb(255,149,0);stroke:black;stroke-width:22.34px;"/>
        </g>
    </g>
</svg>
