<svg xmlns="http://www.w3.org/2000/svg" width="225.471" height="57.443" viewBox="0 0 225.471 57.443">
  <g id="Gruppe_123" data-name="Gruppe 123" transform="translate(2.311 0.489)">
    <g id="Gruppe_142" data-name="Gruppe 142" transform="translate(825.442 -2461.272)">
      <g id="Gruppe_142-2" data-name="Gruppe 142" transform="translate(-820.95 2482.501)">
        <path id="Pfad_171" data-name="Pfad 171" d="M11.262,35.771l4.206-6.789h8.675l4.6,6.789-4.469,7H15.468Z" transform="translate(-11.262 -28.982)" fill="#f2c336" stroke="#262626" stroke-linecap="round" stroke-linejoin="round" stroke-miterlimit="1.5" stroke-width="3" fill-rule="evenodd"/>
      </g>
      <g id="Gruppe_143" data-name="Gruppe 143" transform="translate(-808.01 2475.354)">
        <path id="Pfad_172" data-name="Pfad 172" d="M10.487,36.129l4.475-7.147h8.675l4.6,6.789-4.469,7H14.962Z" transform="translate(-10.487 -28.982)" fill="#f2c336" stroke="#262626" stroke-linecap="round" stroke-linejoin="round" stroke-miterlimit="1.5" stroke-width="3" fill-rule="evenodd"/>
      </g>
      <g id="Gruppe_144" data-name="Gruppe 144" transform="translate(-794.618 2481.996)">
        <path id="Pfad_173" data-name="Pfad 173" d="M10.487,36.129l4.358-7.066,8.791-.081,4.6,6.789-4.469,7H14.962Z" transform="translate(-10.487 -28.982)" fill="#f2c336" stroke="#262626" stroke-linecap="round" stroke-linejoin="round" stroke-miterlimit="1.5" stroke-width="3" fill-rule="evenodd"/>
      </g>
      <g id="Gruppe_145" data-name="Gruppe 145" transform="translate(-807.876 2489.145)">
        <path id="Pfad_174" data-name="Pfad 174" d="M10.487,36.129l4.358-7.066,8.791-.081,4.6,6.789-4.469,7H14.962Z" transform="translate(-10.487 -28.982)" fill="#f2d336" stroke="#262626" stroke-linecap="round" stroke-linejoin="round" stroke-miterlimit="1.5" stroke-width="3" fill-rule="evenodd"/>
      </g>
      <g id="Gruppe_146" data-name="Gruppe 146" transform="translate(-794.47 2495.786)">
        <path id="Pfad_175" data-name="Pfad 175" d="M10.487,36.129l4.358-7.066,8.791-.081,4.6,6.789-4.469,7H14.962Z" transform="translate(-10.487 -28.982)" fill="#f2c336" stroke="#262626" stroke-linecap="round" stroke-linejoin="round" stroke-miterlimit="1.5" stroke-width="3" fill-rule="evenodd"/>
      </g>
      <g id="Gruppe_147" data-name="Gruppe 147" transform="translate(-821.083 2496.292)">
        <path id="Pfad_176" data-name="Pfad 176" d="M10.487,36.129l4.358-7.066,8.791-.081,4.6,6.789-4.469,7H14.962Z" transform="translate(-10.487 -28.982)" fill="#f2c336" stroke="#262626" stroke-linecap="round" stroke-linejoin="round" stroke-miterlimit="1.5" stroke-width="3" fill-rule="evenodd"/>
      </g>
      <g id="Gruppe_148" data-name="Gruppe 148" transform="translate(-807.603 2502.936)">
        <path id="Pfad_177" data-name="Pfad 177" d="M10.487,36.129l4.358-7.066,8.791-.081,4.6,6.789-4.469,7H14.962Z" transform="translate(-10.487 -28.982)" fill="#f2c336" stroke="#262626" stroke-linecap="round" stroke-linejoin="round" stroke-miterlimit="1.5" stroke-width="3" fill-rule="evenodd"/>
      </g>
      <g id="Gruppe_149" data-name="Gruppe 149" transform="translate(-826.753 2461.784)">
        <path id="Pfad_178" data-name="Pfad 178" d="M28.3,64.276c5.964-.063,9.886-1.3,10.8-5.035-3.9-4.113-9.292-7.368-15.211-10.322,4.955,1.523,14.653,6.5,16.661,8.651,3.354-.865,4.614-6.257-1.086-11.64a2.714,2.714,0,0,1-.4,1.273c-.818-1.055-1.939-2.121-2.758-2.98L36.1,46.068a16.058,16.058,0,0,0-2.713-2.4l.045,2.113a9.34,9.34,0,0,0-3.556-2.513c.316.533.6.921.313,1.454a18.4,18.4,0,0,0-3.847-1.322L27.495,45l-4.036-1.191,1.011,1.737a16.064,16.064,0,0,0-4.621-.632,6.318,6.318,0,0,0,1.093,1.322l-4.05-.013a9.2,9.2,0,0,1,1.64,3.089l-1.9-.052a13.045,13.045,0,0,0,2.72,2.5c-.32.446-1.424.164-2.149.125A37.1,37.1,0,0,0,20,54.764H18.4A7.376,7.376,0,0,0,21.6,57.25l-1.974.24a25.14,25.14,0,0,0,4.02,2.362l-1.572.4A10.867,10.867,0,0,0,26.1,61.533c-.109.622-.633.774-1.248,1.009a16.639,16.639,0,0,0,4.659.715Z" transform="translate(-16.634 -43.262)" fill="#76a82a" stroke="#262626" stroke-linecap="round" stroke-linejoin="round" stroke-miterlimit="1.5" stroke-width="2" fill-rule="evenodd"/>
      </g>
      <g id="Gruppe_150" data-name="Gruppe 150" transform="translate(-771.265 2482.797) rotate(180)">
        <path id="Pfad_179" data-name="Pfad 179" d="M11.666,0c5.964.063,9.886,1.3,10.8,5.035-3.9,4.113-9.292,7.368-15.211,10.322,4.955-1.523,14.653-6.5,16.661-8.651,3.354.865,4.614,6.257-1.086,11.64a2.714,2.714,0,0,0-.4-1.273c-.818,1.055-1.939,2.121-2.758,2.98l-.206-1.846a16.058,16.058,0,0,1-2.713,2.4L16.8,18.5a9.34,9.34,0,0,1-3.556,2.513c.316-.533.6-.921.313-1.454a18.4,18.4,0,0,1-3.847,1.322l1.148-1.605L6.825,20.468l1.011-1.737a16.064,16.064,0,0,1-4.621.632A6.318,6.318,0,0,1,4.308,18.04l-4.05.013A9.2,9.2,0,0,0,1.9,14.965L0,15.017a13.045,13.045,0,0,1,2.72-2.5C2.4,12.075,1.3,12.358.571,12.4a37.1,37.1,0,0,1,2.8-2.885h-1.6A7.376,7.376,0,0,1,4.962,7.025l-1.974-.24a25.14,25.14,0,0,1,4.02-2.362l-1.572-.4A10.866,10.866,0,0,1,9.462,2.743c-.109-.622-.633-.774-1.248-1.009a16.639,16.639,0,0,1,4.659-.715Z" transform="translate(0)" fill="#76a82a" stroke="#262626" stroke-linecap="round" stroke-linejoin="round" stroke-miterlimit="1.5" stroke-width="2" fill-rule="evenodd"/>
      </g>
    </g>
    <g id="RaspiHive" transform="translate(-533.622 -290.688)" style="isolation: isolate">
      <g id="Gruppe_151" data-name="Gruppe 151" transform="translate(0 3)" style="isolation: isolate">
        <path id="Pfad_180" data-name="Pfad 180" d="M608.148,325.985V304.167h9.417a9.62,9.62,0,0,1,4.251.885,6.61,6.61,0,0,1,2.834,2.546,7.511,7.511,0,0,1,1.012,3.984,7.138,7.138,0,0,1-1.038,3.952,6.455,6.455,0,0,1-2.909,2.429,10.758,10.758,0,0,1-4.362.82h-5.625v-4.6h4.431a5.369,5.369,0,0,0,1.785-.262,2.247,2.247,0,0,0,1.139-.836,2.577,2.577,0,0,0,.4-1.5,2.674,2.674,0,0,0-.4-1.529,2.331,2.331,0,0,0-1.139-.873,5,5,0,0,0-1.785-.283h-2.088v17.088Zm12.784-10.014,5.455,10.014h-6.435l-5.327-10.014Z" fill="#262626"/>
        <path id="Pfad_181" data-name="Pfad 181" d="M632.821,326.241a6.949,6.949,0,0,1-2.764-.516,4.137,4.137,0,0,1-1.881-1.572,4.861,4.861,0,0,1-.681-2.684,5.252,5.252,0,0,1,.458-2.3,4.14,4.14,0,0,1,1.278-1.562,6.041,6.041,0,0,1,1.912-.926,11.416,11.416,0,0,1,2.36-.415q1.374-.108,2.21-.261a2.949,2.949,0,0,0,1.21-.438.894.894,0,0,0,.372-.751v-.042a1.122,1.122,0,0,0-.489-.98,2.151,2.151,0,0,0-1.258-.341,2.34,2.34,0,0,0-1.368.367,1.563,1.563,0,0,0-.635,1.124h-5.411a5.578,5.578,0,0,1,.953-2.754,5.911,5.911,0,0,1,2.477-2.024,9.615,9.615,0,0,1,4.07-.762,11.233,11.233,0,0,1,3.153.41,7.521,7.521,0,0,1,2.376,1.141,5.119,5.119,0,0,1,1.5,1.7,4.455,4.455,0,0,1,.516,2.115v11.207h-5.5v-2.3h-.128a4.738,4.738,0,0,1-1.188,1.48,4.444,4.444,0,0,1-1.587.82A7.039,7.039,0,0,1,632.821,326.241Zm1.918-3.708a2.947,2.947,0,0,0,1.262-.276,2.424,2.424,0,0,0,.964-.8,2.123,2.123,0,0,0,.373-1.269v-1.363c-.156.065-.321.124-.495.182s-.359.109-.554.159-.4.1-.618.139-.442.082-.676.117a3.348,3.348,0,0,0-1.114.347,1.652,1.652,0,0,0-.639.585,1.479,1.479,0,0,0-.208.772,1.231,1.231,0,0,0,.48,1.045A1.978,1.978,0,0,0,634.739,322.533Z" fill="#262626"/>
        <path id="Pfad_182" data-name="Pfad 182" d="M660.945,314.948h-5.411a1.489,1.489,0,0,0-.352-.862,2.018,2.018,0,0,0-.794-.56,3.1,3.1,0,0,0-2.37.08.84.84,0,0,0-.533.789.88.88,0,0,0,.314.67,2.573,2.573,0,0,0,1.263.48l3.324.6a7.721,7.721,0,0,1,3.744,1.539,3.691,3.691,0,0,1,1.242,2.892,4.756,4.756,0,0,1-1.039,3.031,6.587,6.587,0,0,1-2.8,1.982,10.98,10.98,0,0,1-4.043.7,9.83,9.83,0,0,1-5.864-1.533,5.465,5.465,0,0,1-2.36-4.049H651.1a1.651,1.651,0,0,0,.772,1.2,3,3,0,0,0,1.657.421,2.86,2.86,0,0,0,1.337-.276.887.887,0,0,0,.538-.789.867.867,0,0,0-.464-.745,4.22,4.22,0,0,0-1.411-.447l-2.9-.512a6.923,6.923,0,0,1-3.75-1.662,4.2,4.2,0,0,1-1.236-3.154,4.565,4.565,0,0,1,.9-2.892,5.624,5.624,0,0,1,2.61-1.811,11.708,11.708,0,0,1,4.033-.624,9.437,9.437,0,0,1,5.6,1.471A5,5,0,0,1,660.945,314.948Z" fill="#262626"/>
        <path id="Pfad_183" data-name="Pfad 183" d="M663.63,332.122v-22.5h5.838v2.855h.128a5,5,0,0,1,.937-1.529,4.566,4.566,0,0,1,1.534-1.119,5.068,5.068,0,0,1,2.131-.421,5.99,5.99,0,0,1,3.084.863,6.276,6.276,0,0,1,2.386,2.717,10.835,10.835,0,0,1,.922,4.816,11.02,11.02,0,0,1-.879,4.7,6.354,6.354,0,0,1-2.344,2.78,5.927,5.927,0,0,1-3.212.916,5.26,5.26,0,0,1-2.051-.378,4.564,4.564,0,0,1-1.534-1.033,4.684,4.684,0,0,1-.974-1.486h-.086v8.821Zm5.752-14.318a6.051,6.051,0,0,0,.315,2.061,2.991,2.991,0,0,0,.895,1.342,2.276,2.276,0,0,0,2.769.011,2.9,2.9,0,0,0,.874-1.331,7.288,7.288,0,0,0,0-4.166,2.894,2.894,0,0,0-.874-1.332,2.116,2.116,0,0,0-1.379-.463,2.158,2.158,0,0,0-1.39.463,2.924,2.924,0,0,0-.895,1.332A6.124,6.124,0,0,0,669.382,317.8Z" fill="#262626"/>
        <path id="Pfad_184" data-name="Pfad 184" d="M683.062,325.985V309.622h5.88v16.363Zm2.95-18.068a2.921,2.921,0,0,1-2.056-.788,2.537,2.537,0,0,1,0-3.793,3.055,3.055,0,0,1,4.1,0,2.547,2.547,0,0,1,0,3.793A2.888,2.888,0,0,1,686.012,307.917Z" fill="#262626"/>
        <path id="Pfad_185" data-name="Pfad 185" d="M691.839,325.985V304.167h5.924v8.522H705.6v-8.522h5.923v21.818H705.6v-8.522h-7.841v8.522Z" fill="#262626"/>
        <path id="Pfad_186" data-name="Pfad 186" d="M714.425,325.985V309.622h5.88v16.363Zm2.95-18.068a2.925,2.925,0,0,1-2.056-.788,2.537,2.537,0,0,1,0-3.793,3.057,3.057,0,0,1,4.1,0,2.547,2.547,0,0,1,0,3.793A2.892,2.892,0,0,1,717.375,307.917Z" fill="#262626"/>
        <path id="Pfad_187" data-name="Pfad 187" d="M739.779,309.622l-5.5,16.363h-6.818l-5.5-16.363h6.179l2.642,10.823h.17l2.643-10.823Z" fill="#262626"/>
        <path id="Pfad_188" data-name="Pfad 188" d="M748.771,326.283a9.476,9.476,0,0,1-4.512-1.006,6.937,6.937,0,0,1-2.909-2.9,9.448,9.448,0,0,1-1.017-4.533,9.211,9.211,0,0,1,1.022-4.432,7.319,7.319,0,0,1,2.888-2.951,8.788,8.788,0,0,1,4.4-1.055,9.337,9.337,0,0,1,3.356.576,7.064,7.064,0,0,1,2.567,1.667,7.432,7.432,0,0,1,1.641,2.648,10.06,10.06,0,0,1,.575,3.5v1.363H742.165v-3.238h9.205a2.3,2.3,0,0,0-.357-1.241,2.406,2.406,0,0,0-.927-.842,2.8,2.8,0,0,0-1.315-.3,2.852,2.852,0,0,0-1.311.3,2.48,2.48,0,0,0-.954.836,2.331,2.331,0,0,0-.378,1.247v3.494a2.939,2.939,0,0,0,.33,1.406,2.407,2.407,0,0,0,.949.97,2.971,2.971,0,0,0,1.491.351,3.439,3.439,0,0,0,1.114-.171,2.447,2.447,0,0,0,.868-.495,1.951,1.951,0,0,0,.533-.783h5.369a6.081,6.081,0,0,1-1.311,2.956,6.729,6.729,0,0,1-2.732,1.94A10.543,10.543,0,0,1,748.771,326.283Z" fill="#262626"/>
      </g>
    </g>
  </g>
</svg>
