<?xml version="1.0" encoding="UTF-8" standalone="no"?>
<!DOCTYPE svg PUBLIC "-//W3C//DTD SVG 1.1//EN" "http://www.w3.org/Graphics/SVG/1.1/DTD/svg11.dtd">
<svg width="100%" height="100%" viewBox="0 0 210 166" version="1.1" xmlns="http://www.w3.org/2000/svg" xmlns:xlink="http://www.w3.org/1999/xlink" xml:space="preserve" xmlns:serif="http://www.serif.com/" style="fill-rule:evenodd;clip-rule:evenodd;stroke-linecap:round;stroke-linejoin:round;stroke-miterlimit:1.5;">
    <g transform="matrix(0.446669,0.220349,-0.216463,0.438792,47.9964,-30.2148)">
        <g transform="matrix(-1,0,0,1,383.386,-4.08764)">
            <path d="M161.179,111.269L125.95,86.671" style="fill:none;stroke:rgb(29,29,29);stroke-width:17.07px;"/>
        </g>
        <g transform="matrix(1,0,0,1,-2.14355,-3.09021)">
            <path d="M161.179,111.269L125.95,86.671" style="fill:none;stroke:rgb(29,29,29);stroke-width:17.07px;"/>
        </g>
        <g transform="matrix(0.787056,0,0,0.739016,39.8877,87.5411)">
            <path d="M123.804,78.147L123.367,80.152L157.166,134.231L124.333,190L59.632,190L28.729,134.231L59.632,80.152L71.859,80.152" style="fill:none;stroke:rgb(29,29,29);stroke-width:22.34px;"/>
        </g>
        <g transform="matrix(-0.787056,0,0,0.739016,338.874,86.8001)">
            <path d="M123.804,78.147L123.367,80.152L157.166,134.231L124.333,190L59.632,190L28.729,134.231L59.632,80.152L71.859,80.152" style="fill:none;stroke:rgb(29,29,29);stroke-width:22.34px;"/>
        </g>
        <g transform="matrix(0.787056,0,0,0.739016,116.273,45.4693)">
            <path d="M79.051,80.152L107.321,80.51" style="fill:none;stroke:rgb(29,29,29);stroke-width:10.26px;"/>
            <g transform="matrix(2.551,0,0,2.7656,-119.481,-37.1812)">
                <path d="M83.366,39.252L83.5,35.626" style="fill:none;stroke:rgb(29,29,29);stroke-width:1px;"/>
            </g>
            <path d="M157.166,134.231L124.333,190L59.632,190L26.752,137.082" style="fill:none;stroke:rgb(29,29,29);stroke-width:22.34px;"/>
        </g>
        <g transform="matrix(0.787056,0,0,0.739016,117.051,126.648)">
            <path d="M26.752,137.082L58.774,80.801L123.367,80.152L157.166,134.231L124.333,190L59.632,190L26.752,137.082Z" style="fill:none;stroke:rgb(29,29,29);stroke-width:22.34px;"/>
        </g>
        <g transform="matrix(0.787056,0,0,0.739016,194.572,165.746)">
            <path d="M26.752,137.082L58.774,80.801L123.367,80.152L157.166,134.231L124.333,190L59.632,190L26.752,137.082Z" style="fill:none;stroke:rgb(29,29,29);stroke-width:22.34px;"/>
        </g>
        <g transform="matrix(0.787056,0,0,0.739016,40.6747,168.72)">
            <path d="M26.752,137.082L58.774,80.801L123.367,80.152L157.166,134.231L124.333,190L59.632,190L26.752,137.082Z" style="fill:none;stroke:rgb(29,29,29);stroke-width:22.34px;"/>
        </g>
        <g transform="matrix(0.787056,0,0,0.739016,118.625,207.832)">
            <path d="M26.752,137.082L58.774,80.801L123.367,80.152L157.166,134.231L124.333,190L59.632,190L26.752,137.082Z" style="fill:none;stroke:rgb(29,29,29);stroke-width:22.34px;"/>
        </g>
    </g>
    <g transform="matrix(0.482809,0.238177,-0.227847,0.461869,59.7744,-59.1024)">
        <path d="M93.309,201.52C125.217,201.168 146.199,194.238 151.104,173.363C130.247,150.361 101.392,132.157 69.727,115.639C96.233,124.155 148.119,152.015 158.862,164.017C176.804,159.182 183.545,129.026 153.05,98.92C152.892,101.569 152.159,103.93 150.92,106.038C146.543,100.136 140.545,94.174 136.167,89.372L135.064,99.693C131.189,94.889 126.048,90.508 120.551,86.244L120.791,98.058C115.858,91.964 109.402,87.395 101.769,84.002C103.461,86.982 104.999,89.152 103.442,92.132C95.969,88.443 89.253,86.265 82.861,84.737L89.003,93.715L67.41,87.054L72.817,96.768C66.118,94.357 57.496,93.484 48.096,93.235C49.492,95.7 51.47,98.165 53.946,100.63L32.277,100.555C36.234,105.798 39.256,111.507 41.053,117.829L30.897,117.537C35.2,123.01 40.065,127.642 45.448,131.495C43.737,133.992 37.832,132.41 33.95,132.193C38.05,137.165 43.725,143.353 48.906,148.326L40.37,148.326C44.428,154.322 50.143,158.937 57.441,162.232L46.881,163.575C52.836,168.281 60.268,172.618 68.385,176.783L59.976,179.026C67.089,182.736 74.405,185.712 81.518,186.181C80.933,189.657 78.13,190.509 74.843,191.823C83.715,194.566 91.974,195.776 99.767,195.82L93.309,201.52Z" style="fill:none;stroke:rgb(29,29,29);stroke-width:12.69px;"/>
        <g transform="matrix(1.85749,0,0,1.9417,24.6899,77.5135)">
            <path d="M77.074,36.692L77.074,36.864C77.074,40.176 79.763,42.864 83.074,42.864C86.386,42.864 89.074,40.176 89.074,36.864L89.074,36.692C89.074,33.38 86.386,30.692 83.074,30.692C79.763,30.692 77.074,33.38 77.074,36.692Z" style="fill:none;stroke:rgb(29,29,29);stroke-width:1px;stroke-linecap:butt;stroke-miterlimit:2;"/>
        </g>
        <g transform="matrix(1.66582,-0.859031,0.821774,1.74134,-51.0045,154.266)">
            <path d="M108.359,47.982C109.325,47.316 110.495,46.927 111.755,46.927C115.067,46.927 117.755,49.615 117.755,52.927C117.755,55.552 116.551,56.836 115.437,57.71C114.557,58.401 113.292,59.005 111.638,59.005C108.327,59.005 105.638,56.317 105.638,53.005C105.638,50.904 106.721,49.053 108.359,47.982ZM107.285,48.928C106.51,49.712 105.837,50.816 105.765,52.592C105.842,51.188 106.403,49.911 107.285,48.928ZM110.791,47.065L110.783,47.067L110.846,47.059L110.791,47.065ZM111.065,47.032L111.051,47.034L111.22,47.021L111.065,47.032ZM111.339,47.013L111.638,47.005C111.537,47.005 111.437,47.008 111.339,47.013Z" style="fill:rgb(29,29,29);"/>
        </g>
    </g>
    <g transform="matrix(-0.482809,-0.238177,-0.227847,0.461869,232.93,26.3184)">
        <path d="M93.309,201.52C125.217,201.168 146.199,194.238 151.104,173.363C130.247,150.361 101.392,132.157 69.727,115.639C96.233,124.155 148.119,152.015 158.862,164.017C176.804,159.182 183.545,129.026 153.05,98.92C152.892,101.569 152.159,103.93 150.92,106.038C146.543,100.136 140.545,94.174 136.167,89.372L135.064,99.693C131.189,94.889 126.048,90.508 120.551,86.244L120.791,98.058C115.858,91.964 109.402,87.395 101.769,84.002C103.461,86.982 104.999,89.152 103.442,92.132C95.969,88.443 89.253,86.265 82.861,84.737L89.003,93.715L67.41,87.054L72.817,96.768C66.118,94.357 57.496,93.484 48.096,93.235C49.492,95.7 51.47,98.165 53.946,100.63L32.277,100.555C36.234,105.798 39.256,111.507 41.053,117.829L30.897,117.537C35.2,123.01 40.065,127.642 45.448,131.495C43.737,133.992 37.832,132.41 33.95,132.193C38.05,137.165 43.725,143.353 48.906,148.326L40.37,148.326C44.428,154.322 50.143,158.937 57.441,162.232L46.881,163.575C52.836,168.281 60.268,172.618 68.385,176.783L59.976,179.026C67.089,182.736 74.405,185.712 81.518,186.181C80.933,189.657 78.13,190.509 74.843,191.823C83.715,194.566 91.974,195.776 99.767,195.82L93.309,201.52Z" style="fill:none;stroke:rgb(29,29,29);stroke-width:12.69px;"/>
    </g>
</svg>
