<?xml version="1.0" encoding="UTF-8" standalone="no"?>
<!DOCTYPE svg PUBLIC "-//W3C//DTD SVG 1.1//EN" "http://www.w3.org/Graphics/SVG/1.1/DTD/svg11.dtd">
<svg width="100%" height="100%" viewBox="0 0 1197 246" version="1.1" xmlns="http://www.w3.org/2000/svg" xmlns:xlink="http://www.w3.org/1999/xlink" xml:space="preserve" xmlns:serif="http://www.serif.com/" style="fill-rule:evenodd;clip-rule:evenodd;stroke-linecap:round;stroke-linejoin:round;stroke-miterlimit:1.5;">
    <g transform="matrix(-0.730566,0,0,0.724855,259.47,-13.0654)">
        <path d="M161.179,111.269L125.95,86.671" style="fill:none;stroke:black;stroke-width:17.07px;"/>
    </g>
    <g transform="matrix(0.730566,0,0,0.724855,-17.7847,-15.3054)">
        <path d="M161.179,111.269L125.95,86.671" style="fill:none;stroke:black;stroke-width:17.07px;"/>
    </g>
    <g transform="matrix(0.574996,0,0,0.535679,12.9219,50.3892)">
        <path d="M28.729,134.231L59.632,80.152L123.367,80.152L157.166,134.231L124.333,190L59.632,190L28.729,134.231Z" style="fill:rgb(255,149,0);stroke:black;stroke-width:22.34px;"/>
    </g>
    <g transform="matrix(0.574996,0,0,0.535679,68.7264,19.8932)">
        <path d="M26.752,137.082L59.632,80.152L123.367,80.152L157.166,134.231L124.333,190L59.632,190L26.752,137.082Z" style="fill:rgb(255,149,0);stroke:black;stroke-width:22.34px;"/>
    </g>
    <g transform="matrix(0.574996,0,0,0.535679,125.301,48.2331)">
        <path d="M26.752,137.082L58.774,80.801L123.367,80.152L157.166,134.231L124.333,190L59.632,190L26.752,137.082Z" style="fill:rgb(255,149,0);stroke:black;stroke-width:22.34px;"/>
    </g>
    <g transform="matrix(0.574996,0,0,0.535679,69.2948,78.736)">
        <path d="M26.752,137.082L58.774,80.801L123.367,80.152L157.166,134.231L124.333,190L59.632,190L26.752,137.082Z" style="fill:rgb(255,149,0);stroke:black;stroke-width:22.34px;"/>
    </g>
    <g transform="matrix(0.574996,0,0,0.535679,125.929,107.076)">
        <path d="M26.752,137.082L58.774,80.801L123.367,80.152L157.166,134.231L124.333,190L59.632,190L26.752,137.082Z" style="fill:rgb(255,149,0);stroke:black;stroke-width:22.34px;"/>
    </g>
    <g transform="matrix(0.574996,0,0,0.535679,13.4968,109.232)">
        <path d="M26.752,137.082L58.774,80.801L123.367,80.152L157.166,134.231L124.333,190L59.632,190L26.752,137.082Z" style="fill:rgb(255,149,0);stroke:black;stroke-width:22.34px;"/>
    </g>
    <g transform="matrix(0.574996,0,0,0.535679,70.4447,137.583)">
        <path d="M26.752,137.082L58.774,80.801L123.367,80.152L157.166,134.231L124.333,190L59.632,190L26.752,137.082Z" style="fill:rgb(255,149,0);stroke:black;stroke-width:22.34px;"/>
    </g>
    <g transform="matrix(0.916947,0,0,0.916947,17.8531,3.67337)">
        <text x="273.016px" y="204.96px" style="font-family:'Arial-BoldMT', 'Arial', sans-serif;font-weight:700;font-size:205.794px;">Raspi</text>
        <text x="858.626px" y="204.96px" style="font-family:'Arial-BoldMT', 'Arial', sans-serif;font-weight:700;font-size:205.794px;">Hive</text>
    </g>
    <g transform="matrix(0.789675,0,0,0.762976,-19.4721,-59.165)">
        <path d="M93.309,201.52C125.217,201.168 146.199,194.238 151.104,173.363C130.247,150.361 101.392,132.157 69.727,115.639C96.233,124.155 148.119,152.015 158.862,164.017C176.804,159.182 183.545,129.026 153.05,98.92C152.892,101.569 152.159,103.93 150.92,106.038C146.543,100.136 140.545,94.174 136.167,89.372L135.064,99.693C131.189,94.889 126.048,90.508 120.551,86.244L120.791,98.058C115.858,91.964 109.402,87.395 101.769,84.002C103.461,86.982 104.999,89.152 103.442,92.132C95.969,88.443 89.253,86.265 82.861,84.737L89.003,93.715L67.41,87.054L72.817,96.768C66.118,94.357 57.496,93.484 48.096,93.235C49.492,95.7 51.47,98.165 53.946,100.63L32.277,100.555C36.234,105.798 39.256,111.507 41.053,117.829L30.897,117.537C35.2,123.01 40.065,127.642 45.448,131.495C43.737,133.992 37.832,132.41 33.95,132.193C38.05,137.165 43.725,143.353 48.906,148.326L40.37,148.326C44.428,154.322 50.143,158.937 57.441,162.232L46.881,163.575C52.836,168.281 60.268,172.618 68.385,176.783L59.976,179.026C67.089,182.736 74.405,185.712 81.518,186.181C80.933,189.657 78.13,190.509 74.843,191.823C83.715,194.566 91.974,195.776 99.767,195.82L93.309,201.52Z" style="fill:rgb(118,168,42);stroke:black;stroke-width:12.69px;"/>
    </g>
    <g transform="matrix(-0.789675,0,0,0.762976,263.742,-59.165)">
        <path d="M93.309,201.52C125.217,201.168 146.199,194.238 151.104,173.363C130.247,150.361 101.392,132.157 69.727,115.639C96.233,124.155 148.119,152.015 158.862,164.017C176.804,159.182 183.545,129.026 153.05,98.92C152.892,101.569 152.159,103.93 150.92,106.038C146.543,100.136 140.545,94.174 136.167,89.372L135.064,99.693C131.189,94.889 126.048,90.508 120.551,86.244L120.791,98.058C115.858,91.964 109.402,87.395 101.769,84.002C103.461,86.982 104.999,89.152 103.442,92.132C95.969,88.443 89.253,86.265 82.861,84.737L89.003,93.715L67.41,87.054L72.817,96.768C66.118,94.357 57.496,93.484 48.096,93.235C49.492,95.7 51.47,98.165 53.946,100.63L32.277,100.555C36.234,105.798 39.256,111.507 41.053,117.829L30.897,117.537C35.2,123.01 40.065,127.642 45.448,131.495C43.737,133.992 37.832,132.41 33.95,132.193C38.05,137.165 43.725,143.353 48.906,148.326L40.37,148.326C44.428,154.322 50.143,158.937 57.441,162.232L46.881,163.575C52.836,168.281 60.268,172.618 68.385,176.783L59.976,179.026C67.089,182.736 74.405,185.712 81.518,186.181C80.933,189.657 78.13,190.509 74.843,191.823C83.715,194.566 91.974,195.776 99.767,195.82L93.309,201.52Z" style="fill:rgb(118,168,42);stroke:black;stroke-width:12.69px;"/>
    </g>
</svg>
